<svg width="28" height="28" viewBox="0 0 28 28" fill="none" xmlns="http://www.w3.org/2000/svg">
<path fill-rule="evenodd" clip-rule="evenodd" d="M8.0472 9.989C8.0472 4.473 12.5132 0 18.0236 0C23.534 0 28 4.473 28 9.989C28 15.5064 23.534 19.9794 18.0236 19.9794C15.7472 19.9794 13.657 19.2066 11.9784 17.9228L1.9138 28L0 26.089L10.0716 16.0048C8.806 14.3304 8.0472 12.2514 8.0472 9.989ZM10.7506 9.989C10.7506 14.007 14.014 17.2746 18.0236 17.2746C22.0332 17.2746 25.2952 14.007 25.2952 9.989C25.2952 5.9724 22.0332 2.7048 18.0236 2.7048C14.014 2.7048 10.7506 5.9724 10.7506 9.989Z" fill="white"/>
</svg>
