<svg width="163" height="24" viewBox="0 0 163 24" fill="none" xmlns="http://www.w3.org/2000/svg">
<path fill-rule="evenodd" clip-rule="evenodd" d="M24.6324 24H35.7394L41.2736 7.87525C41.2955 7.83034 41.706 7.41188 41.752 7.36628C41.82 7.34365 41.8654 7.33234 41.8881 7.33234C41.9107 7.33234 41.9568 7.34365 42.0249 7.36628L42.5373 7.87525L45.9812 18.5684H40.5812L38.7171 24H51.2234H51.2244C51.9985 24 52.6597 23.7734 53.2062 23.3206C53.7523 22.8684 53.9674 22.5931 54.0261 21.726C54.0951 20.7067 47.115 2.30811 47.115 2.30811C46.9323 1.83257 45.7715 0 41.9228 0C38.074 0 36.9577 1.83257 36.7301 2.30811L30.7793 19.0867V2.37617C30.7793 1.76503 30.5061 1.23308 29.9597 0.780514C29.4129 0.328285 28.7524 0 27.9783 0H22.1709C21.944 0 21.6782 0.235006 21.3727 0.505145L21.368 0.509314C21.0607 0.780514 20.8155 1.06354 20.6337 1.35789L16.1242 12.5602C15.8512 13.1033 15.6305 13.3745 15.4751 13.3745C15.3196 13.3745 15.0513 12.998 14.8603 12.5602L10.1461 1.35789C9.96351 1.06354 9.71899 0.780514 9.41148 0.509314L9.41014 0.508127C9.10336 0.236738 8.83576 0 8.6087 0H2.80133C2.02676 0 1.36657 0.328285 0.820082 0.780514C0.273245 1.23308 0 1.76503 0 2.37617V24H6.14915L6.15157 10.5204C6.17355 10.4753 6.58402 10.057 6.63005 10.0113C6.69806 9.98879 6.7434 9.97748 6.76607 9.97748C6.78874 9.97748 6.83477 9.98879 6.90278 10.0113L7.41518 10.5204L12.6056 22.7443C12.8107 23.0835 13.0438 23.378 13.306 23.6266C13.5676 23.8759 13.8125 24 14.0404 24H16.7052C16.9322 24 17.1831 23.8759 17.4564 23.6266C17.73 23.378 17.9688 23.0835 18.174 22.7443L23.3662 10.5261L23.8786 10.0171C23.9468 9.99445 23.9926 9.98314 24.0155 9.98314C24.038 9.98314 24.0835 9.99445 24.1515 10.0171C24.1975 10.0627 24.6078 10.4811 24.6298 10.5261L24.6324 24ZM55.5443 24H61.6934V0H55.5443V24ZM84.5952 16.3862L84.5955 0H90.7446V21.6751C90.7446 22.2857 90.4709 22.818 89.9246 23.2704C89.3782 23.7233 88.7169 24 87.943 24H80.9739C80.7464 24 80.4328 23.7967 80.0344 23.491C79.6361 23.1855 79.3344 22.8632 79.1295 22.5238L72.1266 7.65497C72.1266 7.65497 71.6401 7.17377 71.579 7.11514C71.5117 7.08891 71.4809 7.08137 71.4422 7.08137C71.4071 7.08137 71.3798 7.09051 71.3244 7.10904L71.3062 7.11514C71.2601 7.16074 70.8502 7.60988 70.8282 7.65497V24H64.679V2.32543C64.679 1.71428 64.9526 1.18251 65.4991 0.729771C66.0456 0.277543 66.7061 0 67.4802 0H74.4491C74.5386 0 74.6452 0.0593057 74.7694 0.128373L74.7695 0.128382L74.7695 0.128409L74.7697 0.128522C74.8039 0.147518 74.8393 0.167249 74.8762 0.186686C75.047 0.277543 75.2231 0.396171 75.4059 0.543428C75.5881 0.690514 75.7589 0.8484 75.9184 1.01794C76.0771 1.18783 76.2026 1.34091 76.294 1.47686L83.2968 16.3862C83.2968 16.3862 83.7832 16.8367 83.8443 16.8955C83.9116 16.9217 83.9424 16.9292 83.9812 16.9292C84.0157 16.9292 84.0427 16.9203 84.0963 16.9024L84.1172 16.8955C84.1634 16.8497 84.5732 16.4312 84.5952 16.3862ZM101.002 18.3139C100.831 18.2237 100.66 18.1157 100.489 17.9909C100.318 17.8671 100.17 17.7257 100.046 17.5668C99.9201 17.4089 99.8573 17.2392 99.8573 17.0575V0H93.7083V19.3661C93.7083 19.9548 94.2327 21.5168 95.2796 22.5571C96.3266 23.5975 98.0012 23.9995 98.5937 23.9995H110.999V18.4836H101.395C101.303 18.461 101.172 18.4046 101.002 18.3139ZM111 15.5311H104.851V0H111V15.5311ZM139.239 0.729771C138.693 0.277543 138.032 0 137.258 0H130.289C130.2 0 130.093 0.0593223 129.969 0.128402L129.968 0.128537C129.934 0.147528 129.899 0.167254 129.862 0.186686C129.691 0.277543 129.515 0.396171 129.332 0.543428C129.15 0.690514 128.979 0.8484 128.82 1.01794C128.661 1.18783 128.536 1.34091 128.444 1.47686L121.441 16.3862C121.441 16.3862 120.955 16.8367 120.894 16.8955C120.826 16.9217 120.796 16.9292 120.757 16.9292C120.722 16.9292 120.696 16.9203 120.642 16.9025L120.621 16.8955C120.575 16.8497 120.165 16.4312 120.143 16.3862V5.43154H123.61L126.161 0H116.796H116.795C116.021 0 115.36 0.226628 114.813 0.679371C114.267 1.1316 114.052 1.40691 113.993 2.274V21.6751C113.993 22.2857 114.267 22.818 114.814 23.2704C115.36 23.7233 116.021 24 116.795 24H123.764C123.992 24 124.305 23.7967 124.704 23.491C125.102 23.1855 125.404 22.8632 125.608 22.5238L132.612 7.65497C132.612 7.65497 133.098 7.17377 133.159 7.11514C133.226 7.08891 133.257 7.08137 133.296 7.08137C133.331 7.08137 133.358 7.09051 133.414 7.10905L133.432 7.11514C133.478 7.16074 133.888 7.60988 133.91 7.65497V24H140.059V2.32543C140.059 1.71428 139.786 1.18251 139.239 0.729771ZM161.164 2.78366C161.71 3.65486 162.211 4.5228 162.667 5.47285L150.71 5.51605C150.596 5.56165 150.448 5.63005 150.265 5.72023C150.083 5.81057 149.913 5.9184 149.753 6.04251C149.593 6.16714 149.457 6.30308 149.343 6.44965C149.229 6.59742 149.173 6.76114 149.173 6.94217V9.25011H161.505V14.7161H149.173V17.0578C149.173 17.2395 149.235 17.4092 149.361 17.5671C149.485 17.7262 149.634 17.8675 149.804 17.9914C149.975 18.116 150.146 18.2242 150.317 18.3142C150.488 18.4051 150.618 18.4615 150.71 18.4839L162.667 18.4402C162.279 19.3904 161.807 20.4075 161.249 21.4034C160.691 22.3992 160.036 23.2985 159.285 24H147.909C147.316 24 145.672 23.6282 144.595 22.5576C143.518 21.487 143.023 19.9553 143.023 19.3666V4.63354C143.023 4.04554 143.447 2.544 144.578 1.4208C145.708 0.2976 147.316 0 147.909 0H159.251C159.98 0.950742 160.617 1.91246 161.164 2.78366Z" fill="white"/>
</svg>
